<svg width="900" height="600" viewBox="0 0 900 600" fill="none" xmlns="http://www.w3.org/2000/svg">
  <rect width="900" height="600" fill="#EDF5FB"/>
  <rect x="54" y="56" width="792" height="488" rx="28" fill="#FFFFFF"/>
  <rect x="92" y="92" width="716" height="240" rx="24" fill="#DDEBF6"/>
  <rect x="126" y="124" width="648" height="156" rx="22" fill="#6FAED7"/>
  <rect x="154" y="154" width="178" height="102" rx="18" fill="#FFFFFF" fill-opacity="0.16"/>
  <rect x="356" y="154" width="178" height="102" rx="18" fill="#FFFFFF" fill-opacity="0.16"/>
  <rect x="558" y="154" width="178" height="102" rx="18" fill="#FFFFFF" fill-opacity="0.16"/>
  <rect x="92" y="360" width="716" height="140" rx="22" fill="#F8FBFE"/>
  <rect x="120" y="388" width="206" height="86" rx="18" fill="#D7E9F6"/>
  <rect x="346" y="388" width="206" height="86" rx="18" fill="#BCD8ED"/>
  <rect x="572" y="388" width="206" height="86" rx="18" fill="#E8F2FA"/>
  <rect x="154" y="412" width="138" height="16" rx="8" fill="#8EBEDE"/>
  <rect x="380" y="412" width="138" height="16" rx="8" fill="#76ACD3"/>
  <rect x="606" y="412" width="138" height="16" rx="8" fill="#C9DFEF"/>
</svg>
