<svg width="1600" height="720" viewBox="0 0 1600 720" fill="none" xmlns="http://www.w3.org/2000/svg">
  <defs>
    <linearGradient id="sky" x1="800" y1="0" x2="800" y2="420" gradientUnits="userSpaceOnUse">
      <stop stop-color="#83C5F2"/>
      <stop offset="1" stop-color="#DCEFFD"/>
    </linearGradient>
    <linearGradient id="ground" x1="800" y1="420" x2="800" y2="720" gradientUnits="userSpaceOnUse">
      <stop stop-color="#B8D796"/>
      <stop offset="1" stop-color="#7CAB67"/>
    </linearGradient>
    <linearGradient id="building" x1="1100" y1="175" x2="1100" y2="520" gradientUnits="userSpaceOnUse">
      <stop stop-color="#F6F8FB"/>
      <stop offset="1" stop-color="#D6E3EF"/>
    </linearGradient>
    <linearGradient id="glass" x1="0" y1="0" x2="1" y2="1">
      <stop stop-color="#7DB6DF"/>
      <stop offset="1" stop-color="#4E8DBA"/>
    </linearGradient>
  </defs>

  <rect width="1600" height="720" fill="url(#sky)"/>
  <rect y="420" width="1600" height="300" fill="url(#ground)"/>
  <circle cx="1320" cy="110" r="64" fill="#FFF7C2"/>
  <circle cx="220" cy="115" r="48" fill="white" fill-opacity="0.45"/>
  <circle cx="280" cy="115" r="38" fill="white" fill-opacity="0.6"/>
  <circle cx="335" cy="115" r="32" fill="white" fill-opacity="0.5"/>

  <rect x="840" y="178" width="520" height="278" rx="24" fill="url(#building)"/>
  <rect x="875" y="152" width="450" height="54" rx="16" fill="#2E6F9E"/>
  <rect x="930" y="230" width="90" height="82" rx="12" fill="url(#glass)"/>
  <rect x="1040" y="230" width="90" height="82" rx="12" fill="url(#glass)"/>
  <rect x="1150" y="230" width="90" height="82" rx="12" fill="url(#glass)"/>
  <rect x="930" y="330" width="90" height="82" rx="12" fill="url(#glass)"/>
  <rect x="1040" y="330" width="90" height="82" rx="12" fill="url(#glass)"/>
  <rect x="1150" y="330" width="90" height="82" rx="12" fill="url(#glass)"/>
  <rect x="1260" y="260" width="54" height="160" rx="14" fill="#D9B36C"/>

  <rect x="780" y="448" width="640" height="28" rx="14" fill="#C9D5DE"/>
  <rect x="760" y="474" width="680" height="58" rx="22" fill="#B9C9D6" fill-opacity="0.7"/>

  <ellipse cx="118" cy="518" rx="94" ry="52" fill="#5B8E4A" fill-opacity="0.7"/>
  <ellipse cx="1495" cy="500" rx="88" ry="48" fill="#669553" fill-opacity="0.7"/>

  <g transform="translate(165 240)">
    <circle cx="120" cy="76" r="56" fill="#F3C5A9"/>
    <path d="M64 58C64 19 98 0 130 0C168 0 197 24 199 62C176 43 144 35 122 35C99 35 83 42 64 58Z" fill="#24364F"/>
    <path d="M20 302C24 215 63 145 121 145C177 145 221 214 224 302H20Z" fill="#F7F9FC"/>
    <path d="M98 174H145L136 232C134 245 129 254 121 254C113 254 108 245 106 232L98 174Z" fill="#D44E4E"/>
    <path d="M54 154L121 195L188 154L224 302H20L54 154Z" fill="#FFFFFF"/>
    <path d="M115 145L121 192L127 145H115Z" fill="#20384D"/>
  </g>

  <g transform="translate(448 272)">
    <circle cx="118" cy="73" r="50" fill="#F6C8A6"/>
    <path d="M67 54C76 19 108 0 140 0C171 0 194 21 194 49C165 27 144 25 117 25C98 25 80 34 67 54Z" fill="#6C4D35"/>
    <path d="M30 286C36 206 72 150 118 150C166 150 204 206 209 286H30Z" fill="#FFFFFF"/>
    <path d="M88 178H149L143 210C139 228 131 240 118 240C105 240 97 228 94 210L88 178Z" fill="#4A85B7"/>
    <path d="M49 165L118 200L189 165L209 286H30L49 165Z" fill="#F7FAFD"/>
    <rect x="100" y="240" width="40" height="12" rx="6" fill="#D6E4F0"/>
  </g>

  <g opacity="0.45">
    <path d="M700 520C790 470 890 470 980 520" stroke="#D8E7F1" stroke-width="10" stroke-linecap="round"/>
    <path d="M720 560C805 520 900 520 985 560" stroke="#D8E7F1" stroke-width="10" stroke-linecap="round"/>
  </g>
</svg>
