<svg width="1600" height="720" viewBox="0 0 1600 720" fill="none" xmlns="http://www.w3.org/2000/svg">
  <defs>
    <linearGradient id="bg" x1="0" y1="0" x2="1600" y2="720" gradientUnits="userSpaceOnUse">
      <stop stop-color="#5FA7DA"/>
      <stop offset="0.52" stop-color="#A8D0ED"/>
      <stop offset="1" stop-color="#E6F1F9"/>
    </linearGradient>
    <linearGradient id="card" x1="0" y1="0" x2="0" y2="1">
      <stop stop-color="#FFFFFF" stop-opacity="0.95"/>
      <stop offset="1" stop-color="#D8E9F6" stop-opacity="0.92"/>
    </linearGradient>
  </defs>
  <rect width="1600" height="720" fill="url(#bg)"/>
  <circle cx="1360" cy="120" r="150" fill="white" fill-opacity="0.18"/>
  <circle cx="150" cy="110" r="110" fill="white" fill-opacity="0.14"/>
  <rect x="80" y="470" width="510" height="170" rx="32" fill="#0F4C81" fill-opacity="0.22"/>
  <rect x="980" y="120" width="470" height="470" rx="36" fill="#0F4C81" fill-opacity="0.18"/>
  <rect x="1040" y="160" width="320" height="300" rx="26" fill="url(#card)"/>
  <rect x="1085" y="205" width="230" height="18" rx="9" fill="#92B9D9"/>
  <rect x="1085" y="240" width="180" height="18" rx="9" fill="#C6DBEC"/>
  <rect x="1085" y="300" width="120" height="120" rx="20" fill="#5DA1D1" fill-opacity="0.75"/>
  <rect x="1218" y="300" width="97" height="56" rx="16" fill="#B7D5EA"/>
  <rect x="1218" y="364" width="97" height="56" rx="16" fill="#DCEAF5"/>
  <rect x="180" y="140" width="340" height="340" rx="34" fill="white" fill-opacity="0.22"/>
  <rect x="220" y="185" width="260" height="240" rx="28" fill="white" fill-opacity="0.82"/>
  <rect x="250" y="220" width="200" height="24" rx="12" fill="#7EAED1"/>
  <rect x="250" y="262" width="180" height="18" rx="9" fill="#C5DDEE"/>
  <rect x="250" y="312" width="60" height="88" rx="18" fill="#5C9ECE"/>
  <rect x="320" y="312" width="60" height="88" rx="18" fill="#7CB3D8"/>
  <rect x="390" y="312" width="60" height="88" rx="18" fill="#A9CFE9"/>
</svg>
